# AST/ASF file generated using VICON BodyLanguage
# -----------------------------------------------
:version 1.10
:name VICON
:units
  mass 1.0
  length 0.45
  angle deg
:documentation
   .ast/.asf automatically generated from VICON data using
   VICON BodyBuilder and BodyLanguage model FoxedUp or BRILLIANT.MOD
:root
   order TX TY TZ RX RY RZ
   axis XYZ
   position 0 0 0  
   orientation 0 0 0 
:bonedata
  begin
     id 1 
     name lhipjoint
     direction 0.547975 -0.797114 0.253638 
     length 2.36201 
     axis 0 0 0  XYZ
  end
  begin
     id 2 
     name lfemur
     direction 0.34202 -0.939693 0  
     length 7.69075  
     axis 0 0 20  XYZ
    dof rx ry rz
    limits (-160.0 20.0)
           (-70.0 70.0)
           (-60.0 70.0)
  end
  begin
     id 3 
     name ltibia
     direction 0.34202 -0.939693 0   
     length 7.91399   
     axis 0 0 20   XYZ
    dof rx
    limits (-10.0 170.0)
  end
  begin
     id 4 
     name lfoot
     direction 0.0705293 -0.193778 0.978507   
     length 2.13618   
     axis -90 7.62852e-016 20   XYZ
    dof rx rz
    limits (-45.0 90.0)
           (-70.0 20.0)
  end
  begin
     id 5 
     name ltoes
     direction 1.53592e-011 -4.21925e-011 1   
     length 1.07518   
     axis -90 7.62852e-016 20   XYZ
    dof rx
    limits (-90.0 20.0)
  end
  begin
     id 6 
     name rhipjoint
     direction -0.57 -0.782963 0.249136   
     length 2.4047  
     axis 0 0 0  XYZ 
  end
  begin
     id 7 
     name rfemur
     direction -0.34202 -0.939693 0   
     length 7.51486   
     axis 0 0 -20   XYZ
    dof rx ry rz
    limits (-160.0 20.0)
           (-70.0 70.0)
           (-70.0 60.0)
  end
  begin
     id 8 
     name rtibia
     direction -0.34202 -0.939693 0   
     length 8.08317   
     axis 0 0 -20   XYZ
    dof rx
    limits (-10.0 170.0)
 end
 begin
     id 9 
     name rfoot
     direction -0.104954 -0.281256 0.953876   
     length 2.30343  
     axis -90 -7.62852e-016 -20   XYZ
    dof rx rz
    limits (-45.0 90.0)
           (-20.0 70.0)
  end
  begin
     id 10 
     name rtoes
     direction -1.53556e-011 -4.21922e-011 1   
     length 1.14803   
     axis -90 -7.62852e-016 -20   XYZ
    dof rx
    limits (-90.0 20.0)
  end
  begin
     id 11 
     name lowerback
     direction -0.0152855 0.99353 -0.11254   
     length 2.05311   
     axis 0 0 0   XYZ
    dof rx ry rz
    limits (-20.0 45.0)
           (-30.0 30.0)
           (-30.0 30.0)
  end
  begin
     id 12 
     name upperback
     direction -0.00157509 0.999443 -0.033332   
     length 2.06353   
     axis 0 0 0   XYZ
    dof rx ry rz
    limits (-20.0 45.0)
           (-30.0 30.0)
           (-30.0 30.0)
  end
  begin
     id 13 
     name thorax
     direction 0.00577788 0.999804 0.0189484   
     length 2.08472   
     axis 0 0 0   XYZ
    dof rx ry rz
    limits (-20.0 45.0)
           (-30.0 30.0)
           (-30.0 30.0)
  end
  begin
     id 14 
     name lowerneck
     direction -1.09301e-005 0.994719 0.10264   
     length 1.76249   
     axis 0 0 0   XYZ
    dof rx ry rz
    limits (-20.0 45.0)
           (-30.0 30.0)
           (-30.0 30.0)
  end
  begin
     id 15 
     name upperneck
     direction 0.0495018 0.988526 -0.142706   
     length 1.77897   
     axis 0 0 0   XYZ
    dof rx ry rz
    limits (-20.0 45.0)
           (-30.0 30.0)
           (-30.0 30.0)
  end
  begin
     id 16
     name head
     direction 0.0142736 0.998114 -0.0597101  
     length 1.78934  
     axis 0 0 0   XYZ
    dof rx ry rz
    limits (-20.0 45.0)
           (-30.0 30.0)
           (-30.0 30.0)
  end
  begin
     id 17 
     name lclavicle
     direction 0.918111 0.396107 -0.0130883  
     length 3.37276  
     axis 0 0 0   XYZ
    dof ry rz
    limits (-20.0 10.0)
           (0.0 20.0)
  end
  begin
     id 18 
     name lhumerus
     direction 1 -4.48975e-011 -3.26108e-027   
     length 5.34298   
     axis 180 -30 -90   XYZ
    dof rx ry rz
    limits (-60.0 90.0)
           (-90.0 90.0)
           (-90.0 90.0)
  end
  begin
     id 19
     name lradius
     direction 1 -4.48964e-011 -8.84413e-028   
     length 3.67262   
     axis 180 -30 -90   XYZ
    dof rx
    limits (-10.0 170.0)
  end
  begin
     id 20
     name lwrist
     direction 1 -4.48991e-011 -1.24264e-027   
     length 1.83631   
     axis -2.17013e-015 90 90   XYZ
    dof ry
    limits (-180.0 0.0)
 end
  begin
     id 21 
     name lhand
     direction 1 -4.48855e-011 -2.48528e-027   
     length 0.599298   
     axis 1.58582e-015 90 90   XYZ
    dof rx rz
    limits (-90.0 90.0)
           (-45.0 45.0)
  end
  begin
     id 22 
     name lfingers
     direction 1 -4.48811e-011 -4.97056e-027   
     length 0.48317   
     axis 3.17164e-015 90 90   XYZ
    dof rx
    limits (0.0 90.0)
  end
  begin
     id 23
     name lthumb
     direction 0.707107 -6.34882e-011 0.707107   
     length 0.693738   
     axis -90 45 2.85299e-015   XYZ
    dof rx rz
    limits (-45.0 45.0)
           (-45.0 45.0)
  end
  begin
     id 24 
     name rclavicle
     direction -0.920511 0.384752 -0.0680135   
     length 3.43787  
     axis 0 0 0   XYZ 
    dof ry rz
    limits (-10.0 20.0)
           (-20.0 0.0)
  end
  begin
     id 25 
     name rhumerus
     direction -0.999976 -0.00330524 0.00603274  
     length 5.5498   
     axis 180 30 90   XYZ
    dof rx ry rz
    limits (-90.0 60.0)
           (-90.0 90.0)
           (-90.0 90.0)
  end
  begin
     id 26 
     name rradius
     direction -1 -4.48967e-011 8.62438e-027   
     length 3.69401   
     axis 180 30 90   XYZ
    dof rx
    limits (-10.0 170.0)
  end
  begin
     id 27 
     name rwrist
     direction -1 -4.4897e-011 9.54866e-027   
     length 1.84701   
     axis -7.69462e-015 -90 -90   XYZ
    dof ry
    limits (-180.0 0.0)
  end
  begin
     id 28
     name rhand
     direction -1 -4.48982e-011 1.90973e-026   
     length 0.638113   
     axis -1.21857e-014 -90 -90   XYZ
    dof rx rz
    limits (-90.0 90.0)
           (-45.0 45.0)
  end
  begin
     id 29
     name rfingers
     direction -1 -4.48936e-011 3.81946e-026   
     length 0.514463   
     axis -2.43714e-014 -90 -90   XYZ
    dof rx
    limits (0.0 90.0)
  end
  begin
     id 30
     name rthumb
     direction -0.707107 -6.34942e-011 0.707107   
     length 0.738669   
     axis -90 -45 -2.85299e-015   XYZ
    dof rx rz
    limits (-45.0 45.0)
           (-45.0 45.0)
  end
:hierarchy
  begin
    root lhipjoint rhipjoint lowerback
    lhipjoint lfemur
    lfemur ltibia
    ltibia lfoot
    lfoot ltoes
    rhipjoint rfemur
    rfemur rtibia
    rtibia rfoot
    rfoot rtoes
    lowerback upperback
    upperback thorax
    thorax lowerneck lclavicle rclavicle
    lowerneck upperneck
    upperneck head
    lclavicle lhumerus
    lhumerus lradius
    lradius lwrist
    lwrist lhand lthumb
    lhand lfingers
    rclavicle rhumerus
    rhumerus rradius
    rradius rwrist
    rwrist rhand rthumb
    rhand rfingers
  end

#!OML:ASF F:\twosubjects\two\Thursday\Session 1\Rory.ASF
:FULLY-SPECIFIED
:DEGREES
165
root 19.8825 18.5859 12.5891 2.53235 -18.0418 2.2223
lowerback 3.06923 -0.170289 -3.74803
upperback 1.44594 -0.345464 -1.78084
thorax -0.225252 -0.186244 0.285168
lowerneck -0.841592 -12.6356 -13.6873
upperneck 15.9426 -19.2402 15.6514
head 7.91079 -9.22872 5.5885
rclavicle -5.73494e-014 -1.31198e-014
rhumerus -40.2954 9.97456 -95.4379
rradius 79.8176
rwrist -64.5155
rhand -13.6027 12.1993
rfingers 7.12502
rthumb 12.5121 -17.4061
lclavicle -5.73494e-014 -1.31198e-014
lhumerus -45.4866 -15.5514 96.7463
lradius 109.568
lwrist -8.70074
lhand -11.2489 22.5268
lfingers 7.12502
lthumb 14.7807 51.9797
rfemur 6.70099 10.6003 18.8816
rtibia 23.1137
rfoot -14.9483 0.363156
rtoes -19.2921
lfemur -25.7511 -1.75594 -16.1387
ltibia 26.4978
lfoot -4.00862 4.61203
ltoes 0.273918
166
root 19.8882 18.5841 12.7528 2.49137 -18.1465 2.19664
lowerback 3.08364 -0.173846 -3.8847
upperback 1.61383 -0.349759 -1.8893
thorax -0.0603822 -0.193132 0.249852
lowerneck -0.881499 -12.9316 -13.4782
upperneck 15.64 -19.6956 16.0058
head 7.91023 -9.41978 5.60417
rclavicle 7.15625e-015 1.23246e-014
rhumerus -40.0856 8.90786 -94.8943
rradius 77.9067
rwrist -63.9792
rhand -13.189 11.6114
rfingers 7.12502
rthumb 12.911 -17.9692
lclavicle 7.15625e-015 1.23246e-014
lhumerus -45.1684 -15.2764 96.1341
lradius 109.147
lwrist -8.86006
lhand -11.6174 22.4985
lfingers 7.12502
lthumb 14.4257 51.9771
rfemur 6.59006 11.0594 18.902
rtibia 24.2896
rfoot -14.6245 0.238119
rtoes -19.9565
lfemur -25.7344 -0.988795 -16.4675
ltibia 27.518
lfoot -4.59546 3.44091
ltoes 3.05644
167
root 19.9061 18.5761 12.9079 2.64297 -17.8425 2.15854
lowerback 3.0591 -0.49353 -3.89173
upperback 1.70823 -0.771505 -2.03483
thorax 0.0623158 -0.406188 0.116058
lowerneck -1.24802 -13.0855 -12.9901
upperneck 15.5754 -19.9141 16.0623
head 7.94479 -9.47779 5.49285
rclavicle 1.74931e-014 1.82882e-014
rhumerus -39.8761 8.37376 -94.6216
rradius 76.0117
rwrist -63.2788
rhand -14.1338 10.3023
rfingers 7.12502
rthumb 12.0001 -19.3337
lclavicle 1.74931e-014 1.82882e-014
lhumerus -44.841 -14.7514 95.2867
lradius 108.653
lwrist -9.12929
lhand -12.0204 22.7355
lfingers 7.12502
lthumb 14.0374 52.2415
rfemur 6.22883 10.9555 18.8129
rtibia 25.5881
rfoot -14.1026 0.280135
rtoes -20.0983
lfemur -25.8705 -0.836878 -16.7749
ltibia 28.359
lfoot -5.19895 2.8136
ltoes 3.88662
168
root 19.919 18.5774 13.0641 2.59487 -18.0059 2.58883
lowerback 3.03876 -0.623415 -4.45492
upperback 1.72394 -0.958425 -2.2035
thorax 0.102986 -0.503797 0.261786
lowerneck -0.959506 -13.1325 -13.0482
upperneck 15.1432 -20.0221 16.4713
head 7.82135 -9.54 5.64104
rclavicle 2.69353e-014 3.10104e-014
rhumerus -39.6147 7.60294 -94.1512
rradius 73.7694
rwrist -61.7739
rhand -14.3947 10.1542
rfingers 7.12502
rthumb 11.7485 -19.4963
lclavicle 2.69353e-014 3.10104e-014
lhumerus -44.723 -14.2231 94.7515
lradius 108.278
lwrist -9.54935
lhand -11.9564 23.546
lfingers 7.12502
lthumb 14.099 53.0477
rfemur 5.83616 10.7662 18.0864
rtibia 26.9215
rfoot -13.5821 0.809375
rtoes -20.3736
lfemur -25.8494 -0.621831 -17.5182
ltibia 29.1119
lfoot -5.8402 2.89227
ltoes 3.10177
169
root 19.9291 18.5898 13.2379 2.26705 -18.4607 3.36088
lowerback 2.86138 -0.566464 -5.33378
upperback 1.86482 -0.886796 -2.39122
thorax 0.357149 -0.481198 0.552776
lowerneck -0.56763 -13.2508 -13.4492
upperneck 14.6436 -20.2379 17.0344
head 7.73162 -9.67053 5.87974
rclavicle -2.94201e-014 1.43125e-014
rhumerus -39.4845 6.72172 -93.3834
rradius 71.572
rwrist -59.5862
rhand -14.0657 10.4635
rfingers 7.12502
rthumb 12.0657 -19.1686
lclavicle -2.94201e-014 1.43125e-014
lhumerus -44.5981 -13.8036 94.4839
lradius 107.959
lwrist -9.92406
lhand -12.1765 24.3001
lfingers 7.12502
lthumb 13.8869 53.8164
rfemur 5.39303 10.3744 16.8053
rtibia 28.5396
rfoot -12.865 2.01084
rtoes -20.1665
lfemur -25.504 -0.633216 -18.5762
ltibia 29.8161
lfoot -6.6918 3.30517
ltoes 0.54243
170
root 19.9349 18.5926 13.4085 2.08537 -18.7191 3.20616
lowerback 2.86578 -0.571042 -5.32497
upperback 2.02697 -0.88526 -2.34894
thorax 0.52223 -0.486501 0.589743
lowerneck -0.572132 -13.4241 -13.673
upperneck 14.5528 -20.5154 17.3085
head 7.80655 -9.80217 5.95791
rclavicle 7.7526e-015 4.77083e-015
rhumerus -39.3255 5.88318 -92.6526
rradius 69.1396
rwrist -57.0113
rhand -14.1886 9.71815
rfingers 7.12502
rthumb 11.9472 -19.9209
lclavicle 7.7526e-015 4.77083e-015
lhumerus -44.5679 -13.3645 94.1673
lradius 107.543
lwrist -10.1886
lhand -12.7728 24.2181
lfingers 7.12502
lthumb 13.3122 53.7729
rfemur 4.99126 10.1456 16.6826
rtibia 30.305
rfoot -11.7082 2.89421
rtoes -20.1051
lfemur -24.8377 -0.954149 -18.5553
ltibia 30.4011
lfoot -7.75023 3.72388
ltoes -1.07472
171
root 19.9363 18.5803 13.5444 2.31629 -18.7593 2.83726
lowerback 3.02895 -0.669413 -5.26491
upperback 1.92322 -1.03143 -2.25679
thorax 0.331649 -0.55375 0.657698
lowerneck -0.51146 -13.5176 -13.6835
upperneck 14.5585 -20.6756 17.3876
head 7.83574 -9.87959 5.96471
rclavicle -3.78685e-014 -1.27222e-014
rhumerus -39.1498 4.9952 -92.0562
rradius 66.4015
rwrist -53.8373
rhand -14.5368 9.06965
rfingers 7.12502
rthumb 11.6115 -20.5886
lclavicle -3.78685e-014 -1.27222e-014
lhumerus -44.6661 -12.8683 93.7225
lradius 107.17
lwrist -10.0952
lhand -12.9503 24.0376
lfingers 7.12502
lthumb 13.1411 53.6035
rfemur 4.07955 9.9889 16.8979
rtibia 32.1662
rfoot -10.4113 3.28542
rtoes -19.3569
lfemur -24.6717 -1.05925 -18.2788
ltibia 30.8513
lfoot -8.50131 3.77822
ltoes 0.214109
172
root 19.9344 18.591 13.7039 2.36844 -19.87 2.86316
lowerback 2.82282 -0.412931 -5.58225
upperback 1.83998 -0.686893 -2.29585
thorax 0.348215 -0.383717 0.784148
lowerneck -0.101567 -13.519 -13.7001
upperneck 14.2842 -20.704 17.5387
head 7.69777 -9.92068 6.04419
rclavicle -6.35117e-014 2.54444e-014
rhumerus -39.1963 4.14499 -91.3904
rradius 63.8899
rwrist -50.2431
rhand -14.5283 8.84411
rfingers 7.12502
rthumb 11.6197 -20.8137
lclavicle -6.35117e-014 2.54444e-014
lhumerus -44.8504 -12.4594 93.2862
lradius 106.923
lwrist -9.80667
lhand -13.1105 24.2357
lfingers 7.12502
lthumb 12.9867 53.8115
rfemur 3.02671 10.5631 16.5408
rtibia 34.08
rfoot -8.81109 3.88842
rtoes -17.3519
lfemur -24.2241 -0.190477 -18.4639
ltibia 31.1613
lfoot -9.40478 3.91826
ltoes 2.76213
173
root 19.928 18.6115 13.8691 2.18906 -20.7982 2.94692
lowerback 2.81194 -0.179112 -5.89057
upperback 1.72605 -0.38857 -2.31329
thorax 0.223373 -0.232839 0.931252
lowerneck 0.598976 -13.51 -14.0826
upperneck 14.0362 -20.7972 17.977
head 7.60319 -10.0138 6.28317
rclavicle -2.85256e-014 1.90833e-014
rhumerus -39.3673 3.06631 -90.5682
rradius 61.243
rwrist -46.5654
rhand -13.3285 9.19072
rfingers 7.12502
rthumb 12.7765 -20.3983
lclavicle -2.85256e-014 1.90833e-014
lhumerus -45.3082 -12.1234 93.0286
lradius 106.806
lwrist -9.79125
lhand -13.5433 24.397
lfingers 7.12502
lthumb 12.5694 53.9989
rfemur 2.14856 11.007 16.1906
rtibia 36.0604
rfoot -7.2245 4.38308
rtoes -17.2301
lfemur -23.4254 0.504114 -18.7152
ltibia 31.3237
lfoot -10.3613 3.98646
ltoes 4.19642
